<?xml version="1.0" encoding="UTF-8" standalone="no"?>
<!DOCTYPE svg PUBLIC "-//W3C//DTD SVG 1.1//EN" "http://www.w3.org/Graphics/SVG/1.1/DTD/svg11.dtd">
<svg width="100%" height="100%" viewBox="0 0 275 275" version="1.1" xmlns="http://www.w3.org/2000/svg" xmlns:xlink="http://www.w3.org/1999/xlink" xml:space="preserve" xmlns:serif="http://www.serif.com/" style="fill-rule:evenodd;clip-rule:evenodd;stroke-linejoin:round;stroke-miterlimit:2;">
    <path d="M33.513,31.211C39.092,38.302 46.062,44 53.877,48.04C62.615,52.557 72.411,55 82.5,55C92.159,55 101.549,52.76 110,48.606C118.27,44.54 125.642,38.64 131.487,31.211C127.412,28.551 125.569,23.528 126.957,18.863C128.344,14.198 132.633,11 137.5,11C142.367,11 146.656,14.198 148.043,18.863C149.431,23.528 147.588,28.551 143.513,31.211C149.358,38.64 156.73,44.54 165,48.606C173.451,52.76 182.841,55 192.5,55C202.159,55 211.549,52.76 220,48.606C228.27,44.54 235.642,38.64 241.487,31.211C236.913,28.225 235.223,22.334 237.519,17.377C239.814,12.42 245.4,9.899 250.637,11.457C255.873,13.014 259.172,18.179 258.385,23.585C257.598,28.991 252.963,33 247.5,33L247.5,88L27.5,88L27.5,33C22.037,33 17.402,28.991 16.615,23.585C15.828,18.179 19.127,13.014 24.363,11.457C29.6,9.899 35.186,12.42 37.481,17.377C39.777,22.334 38.087,28.225 33.513,31.211ZM137.5,77C143.571,77 148.5,72.071 148.5,66C148.5,59.929 143.571,55 137.5,55C131.429,55 126.5,59.929 126.5,66C126.5,72.071 131.429,77 137.5,77Z" style="stroke:black;stroke-width:1px;"/>
    <path d="M192.5,165C180.358,165 170.5,155.142 170.5,143C170.5,130.858 180.358,121 192.5,121C204.642,121 214.5,130.858 214.5,143C214.5,155.142 204.642,165 192.5,165ZM192.5,154C198.571,154 203.5,149.071 203.5,143C203.5,136.929 198.571,132 192.5,132C186.429,132 181.5,136.929 181.5,143C181.5,149.071 186.429,154 192.5,154Z" style="stroke:black;stroke-width:1px;"/>
    <path d="M192.5,209L203.5,209C209.575,209 214.5,213.925 214.5,220C214.5,226.075 209.575,231 203.5,231L192.5,231L192.5,209Z" style="stroke:black;stroke-width:1px;"/>
    <rect x="159.5" y="209" width="22" height="22" style="stroke:black;stroke-width:1px;"/>
    <rect x="126.5" y="209" width="22" height="22" style="stroke:black;stroke-width:1px;"/>
    <rect x="93.5" y="209" width="22" height="22" style="stroke:black;stroke-width:1px;"/>
    <path d="M71.5,209L82.5,209L82.5,231L71.5,231C65.425,231 60.5,226.075 60.5,220C60.5,213.925 65.425,209 71.5,209Z" style="stroke:black;stroke-width:1px;"/>
    <path d="M82.5,165C70.358,165 60.5,155.142 60.5,143C60.5,130.858 70.358,121 82.5,121C94.642,121 104.5,130.858 104.5,143C104.5,155.142 94.642,165 82.5,165ZM82.5,154C88.571,154 93.5,149.071 93.5,143C93.5,136.929 88.571,132 82.5,132C76.429,132 71.5,136.929 71.5,143C71.5,149.071 76.429,154 82.5,154Z" style="stroke:black;stroke-width:1px;"/>
    <path d="M27.5,88L247.5,88L247.5,220C247.5,244.301 227.801,264 203.5,264L71.5,264C47.199,264 27.5,244.301 27.5,220L27.5,88ZM71.5,198C59.35,198 49.5,207.85 49.5,220C49.5,232.15 59.35,242 71.5,242L203.5,242C215.65,242 225.5,232.15 225.5,220C225.5,207.85 215.65,198 203.5,198L71.5,198ZM192.5,176C210.713,176 225.5,161.213 225.5,143C225.5,124.787 210.713,110 192.5,110C174.287,110 159.5,124.787 159.5,143C159.5,161.213 174.287,176 192.5,176ZM82.5,176C100.713,176 115.5,161.213 115.5,143C115.5,124.787 100.713,110 82.5,110C64.287,110 49.5,124.787 49.5,143C49.5,161.213 64.287,176 82.5,176Z" style="stroke:black;stroke-width:1px;"/>
    <path d="M198.513,31.211C204.283,38.545 211.626,44.489 220,48.606C211.549,52.76 202.159,55 192.5,55C182.841,55 173.451,52.76 165,48.606C173.374,44.489 180.717,38.545 186.487,31.211C182.412,28.551 180.569,23.528 181.957,18.863C183.344,14.198 187.633,11 192.5,11C197.367,11 201.656,14.198 203.043,18.863C204.431,23.528 202.588,28.551 198.513,31.211Z" style="stroke:black;stroke-width:1px;"/>
    <path d="M88.513,31.211C94.283,38.545 101.626,44.489 110,48.606C101.549,52.76 92.159,55 82.5,55C72.411,55 62.615,52.557 53.877,48.04C62.348,43.888 69.883,38.053 76.024,30.892C72.132,28.057 70.536,23.02 72.085,18.461C73.634,13.902 77.968,10.88 82.782,11.004C87.595,11.127 91.769,14.366 93.083,18.999C94.396,23.631 92.545,28.579 88.513,31.211Z" style="stroke:black;stroke-width:1px;"/>
    <g id="_0" serif:id="0" transform="matrix(1,0,0,1,-72.5,352.5)">
        <g id="LINE---0x9C7" serif:id="LINE - 0x9C7" transform="matrix(1.1,0,0,1.1,-21,21.5)">
            <path d="M200,-130L200,-150" style="fill:none;stroke:black;stroke-width:0.09px;stroke-linecap:round;"/>
        </g>
        <g id="LINE---0x9C8" serif:id="LINE - 0x9C8" transform="matrix(1.1,0,0,1.1,-21,21.5)">
            <path d="M190,-130L190,-150" style="fill:none;stroke:black;stroke-width:0.09px;stroke-linecap:round;"/>
        </g>
        <g id="LINE---0x9C9" serif:id="LINE - 0x9C9" transform="matrix(1.1,0,0,1.1,-21,21.5)">
            <path d="M220,-130L220,-150" style="fill:none;stroke:black;stroke-width:0.09px;stroke-linecap:round;"/>
        </g>
        <g id="LINE---0x9CA" serif:id="LINE - 0x9CA" transform="matrix(1.1,0,0,1.1,-21,21.5)">
            <path d="M230,-130L230,-150" style="fill:none;stroke:black;stroke-width:0.09px;stroke-linecap:round;"/>
        </g>
        <g id="LINE---0x9CB" serif:id="LINE - 0x9CB" transform="matrix(1.1,0,0,1.1,-21,21.5)">
            <path d="M250,-130L250,-150" style="fill:none;stroke:black;stroke-width:0.09px;stroke-linecap:round;"/>
        </g>
        <g id="LINE---0x9CC" serif:id="LINE - 0x9CC" transform="matrix(1.1,0,0,1.1,-21,21.5)">
            <path d="M260,-130L260,-150" style="fill:none;stroke:black;stroke-width:0.09px;stroke-linecap:round;"/>
        </g>
        <g id="LINE---0x9CD" serif:id="LINE - 0x9CD" transform="matrix(1.1,0,0,1.1,-21,21.5)">
            <path d="M160,-130L160,-150" style="fill:none;stroke:black;stroke-width:0.09px;stroke-linecap:round;"/>
        </g>
        <g id="LINE---0x9CE" serif:id="LINE - 0x9CE" transform="matrix(1.1,0,0,1.1,-21,21.5)">
            <path d="M170,-130L170,-150" style="fill:none;stroke:black;stroke-width:0.09px;stroke-linecap:round;"/>
        </g>
        <g id="LINE---0x9CF" serif:id="LINE - 0x9CF" transform="matrix(1.1,0,0,1.1,-21,21.5)">
            <path d="M170,-150L190,-150" style="fill:none;stroke:black;stroke-width:0.09px;stroke-linecap:round;"/>
        </g>
        <g id="LINE---0x9D0" serif:id="LINE - 0x9D0" transform="matrix(1.1,0,0,1.1,-21,21.5)">
            <path d="M190,-130L170,-130" style="fill:none;stroke:black;stroke-width:0.09px;stroke-linecap:round;"/>
        </g>
        <g id="LINE---0x9D1" serif:id="LINE - 0x9D1" transform="matrix(1.1,0,0,1.1,-21,21.5)">
            <path d="M200,-150L220,-150" style="fill:none;stroke:black;stroke-width:0.09px;stroke-linecap:round;"/>
        </g>
        <g id="LINE---0x9D2" serif:id="LINE - 0x9D2" transform="matrix(1.1,0,0,1.1,-21,21.5)">
            <path d="M220,-130L200,-130" style="fill:none;stroke:black;stroke-width:0.09px;stroke-linecap:round;"/>
        </g>
        <g id="LINE---0x9D3" serif:id="LINE - 0x9D3" transform="matrix(1.1,0,0,1.1,-21,21.5)">
            <path d="M230,-150L250,-150" style="fill:none;stroke:black;stroke-width:0.09px;stroke-linecap:round;"/>
        </g>
        <g id="LINE---0x9D4" serif:id="LINE - 0x9D4" transform="matrix(1.1,0,0,1.1,-21,21.5)">
            <path d="M250,-130L230,-130" style="fill:none;stroke:black;stroke-width:0.09px;stroke-linecap:round;"/>
        </g>
        <g id="ARC---0x9D5" serif:id="ARC - 0x9D5" transform="matrix(1.1,0,0,1.1,-21,21.5)">
            <path d="M150,-160C138.954,-160 130,-151.046 130,-140C130,-128.954 138.954,-120 150,-120" style="fill:none;stroke:black;stroke-width:0.09px;stroke-linecap:round;"/>
        </g>
        <g id="LINE---0x9D6" serif:id="LINE - 0x9D6" transform="matrix(1.1,0,0,1.1,-21,21.5)">
            <path d="M160,-150L150,-150" style="fill:none;stroke:black;stroke-width:0.09px;stroke-linecap:round;"/>
        </g>
        <g id="LINE---0x9D7" serif:id="LINE - 0x9D7" transform="matrix(1.1,0,0,1.1,-21,21.5)">
            <path d="M150,-130L160,-130" style="fill:none;stroke:black;stroke-width:0.09px;stroke-linecap:round;"/>
        </g>
        <g id="ARC---0x9D8" serif:id="ARC - 0x9D8" transform="matrix(1.1,0,0,1.1,-21,21.5)">
            <path d="M150,-150C144.477,-150 140,-145.523 140,-140C140,-134.477 144.477,-130 150,-130" style="fill:none;stroke:black;stroke-width:0.09px;stroke-linecap:round;"/>
        </g>
        <g id="LWPOLYLINE---0x9D9" serif:id="LWPOLYLINE - 0x9D9" transform="matrix(1.1,0,0,1.1,-21,21.5)">
            <path d="M150,-160L270,-160" style="fill:none;stroke:black;stroke-width:0.09px;stroke-linecap:round;"/>
        </g>
        <g id="LWPOLYLINE---0x9DA" serif:id="LWPOLYLINE - 0x9DA" transform="matrix(1.1,0,0,1.1,-21,21.5)">
            <path d="M270,-120L150,-120" style="fill:none;stroke:black;stroke-width:0.09px;stroke-linecap:round;"/>
        </g>
        <g id="LINE---0x9DB" serif:id="LINE - 0x9DB" transform="matrix(1.1,0,0,1.1,-21,21.5)">
            <path d="M270,-130L260,-130" style="fill:none;stroke:black;stroke-width:0.09px;stroke-linecap:round;"/>
        </g>
        <g id="LINE---0x9DC" serif:id="LINE - 0x9DC" transform="matrix(1.1,0,0,1.1,-21,21.5)">
            <path d="M260,-150L270,-150" style="fill:none;stroke:black;stroke-width:0.09px;stroke-linecap:round;"/>
        </g>
        <g id="ARC---0x9DD" serif:id="ARC - 0x9DD" transform="matrix(1.1,0,0,1.1,-21,21.5)">
            <path d="M270,-120C281.046,-120 290,-128.954 290,-140C290,-151.046 281.046,-160 270,-160" style="fill:none;stroke:black;stroke-width:0.09px;stroke-linecap:round;"/>
        </g>
        <g id="ARC---0x9DE" serif:id="ARC - 0x9DE" transform="matrix(1.1,0,0,1.1,-21,21.5)">
            <path d="M270,-130C275.523,-130 280,-134.477 280,-140C280,-145.523 275.523,-150 270,-150" style="fill:none;stroke:black;stroke-width:0.09px;stroke-linecap:round;"/>
        </g>
        <g id="CIRCLE---0x9DF" serif:id="CIRCLE - 0x9DF" transform="matrix(1.1,0,0,1.1,-21,21.5)">
            <path d="M160,-180C176.557,-180 190,-193.443 190,-210C190,-226.557 176.557,-240 160,-240C143.443,-240 130,-226.557 130,-210C130,-193.443 143.443,-180 160,-180Z" style="fill:none;stroke:black;stroke-width:0.09px;stroke-linecap:round;"/>
        </g>
        <g id="CIRCLE---0x9E0" serif:id="CIRCLE - 0x9E0" transform="matrix(1.1,0,0,1.1,-21,21.5)">
            <path d="M160,-190C171.038,-190 180,-198.962 180,-210C180,-221.038 171.038,-230 160,-230C148.962,-230 140,-221.038 140,-210C140,-198.962 148.962,-190 160,-190Z" style="fill:none;stroke:black;stroke-width:0.09px;stroke-linecap:round;"/>
        </g>
        <g id="CIRCLE---0x9E1" serif:id="CIRCLE - 0x9E1" transform="matrix(1.1,0,0,1.1,-21,21.5)">
            <path d="M260,-180C276.557,-180 290,-193.443 290,-210C290,-226.557 276.557,-240 260,-240C243.443,-240 230,-226.557 230,-210C230,-193.443 243.443,-180 260,-180Z" style="fill:none;stroke:black;stroke-width:0.09px;stroke-linecap:round;"/>
        </g>
        <g id="CIRCLE---0x9E2" serif:id="CIRCLE - 0x9E2" transform="matrix(1.1,0,0,1.1,-21,21.5)">
            <path d="M260,-190C271.038,-190 280,-198.962 280,-210C280,-221.038 271.038,-230 260,-230C248.962,-230 240,-221.038 240,-210C240,-198.962 248.962,-190 260,-190Z" style="fill:none;stroke:black;stroke-width:0.09px;stroke-linecap:round;"/>
        </g>
        <g id="CIRCLE---0x9E3" serif:id="CIRCLE - 0x9E3" transform="matrix(1.1,0,0,1.1,-21,21.5)">
            <path d="M210,-270C215.519,-270 220,-274.481 220,-280C220,-285.519 215.519,-290 210,-290C204.481,-290 200,-285.519 200,-280C200,-274.481 204.481,-270 210,-270Z" style="fill:none;stroke:black;stroke-width:0.09px;stroke-linecap:round;"/>
        </g>
        <g id="CIRCLE---0x9E4" serif:id="CIRCLE - 0x9E4" transform="matrix(1.1,0,0,1.1,-21,21.5)">
            <path d="M160,-200C165.519,-200 170,-204.481 170,-210C170,-215.519 165.519,-220 160,-220C154.481,-220 150,-215.519 150,-210C150,-204.481 154.481,-200 160,-200Z" style="fill:none;stroke:black;stroke-width:0.09px;stroke-linecap:round;"/>
        </g>
        <g id="ARC---0x9E5" serif:id="ARC - 0x9E5" transform="matrix(1.1,0,0,1.1,-21,21.5)">
            <path d="M110,-140C110,-117.909 127.909,-100 150,-100" style="fill:none;stroke:black;stroke-width:0.09px;stroke-linecap:round;"/>
        </g>
        <g id="ARC---0x9E6" serif:id="ARC - 0x9E6" transform="matrix(1.1,0,0,1.1,-21,21.5)">
            <path d="M270,-100C292.091,-100 310,-117.909 310,-140" style="fill:none;stroke:black;stroke-width:0.09px;stroke-linecap:round;"/>
        </g>
        <g id="LINE---0x9E7" serif:id="LINE - 0x9E7" transform="matrix(1.1,0,0,1.1,-21,21.5)">
            <path d="M310,-140L310,-270" style="fill:none;stroke:black;stroke-width:0.09px;stroke-linecap:round;"/>
        </g>
        <g id="LINE---0x9E8" serif:id="LINE - 0x9E8" transform="matrix(1.1,0,0,1.1,-21,21.5)">
            <path d="M150,-100L270,-100" style="fill:none;stroke:black;stroke-width:0.09px;stroke-linecap:round;"/>
        </g>
        <g id="LINE---0x9E9" serif:id="LINE - 0x9E9" transform="matrix(1.1,0,0,1.1,-21,21.5)">
            <path d="M110,-270L110,-140" style="fill:none;stroke:black;stroke-width:0.09px;stroke-linecap:round;"/>
        </g>
        <g id="LINE---0x9F0" serif:id="LINE - 0x9F0" transform="matrix(1.1,0,0,1.1,-21,21.5)">
            <path d="M310,-270L310,-310" style="fill:none;stroke:black;stroke-width:0.09px;stroke-linecap:round;"/>
        </g>
        <g id="LINE---0x9F1" serif:id="LINE - 0x9F1" transform="matrix(1.1,0,0,1.1,-21,21.5)">
            <path d="M110,-270L110,-310" style="fill:none;stroke:black;stroke-width:0.09px;stroke-linecap:round;"/>
        </g>
        <g id="CIRCLE---0x9F2" serif:id="CIRCLE - 0x9F2" transform="matrix(1.1,0,0,1.1,-21,21.5)">
            <path d="M260,-200C265.519,-200 270,-204.481 270,-210C270,-215.519 265.519,-220 260,-220C254.481,-220 250,-215.519 250,-210C250,-204.481 254.481,-200 260,-200Z" style="fill:none;stroke:black;stroke-width:0.09px;stroke-linecap:round;"/>
        </g>
        <g id="ARC---0x9F3" serif:id="ARC - 0x9F3" transform="matrix(1.1,0,0,1.1,-21,21.5)">
            <path d="M310,-310C314.966,-310 319.18,-313.645 319.896,-318.559C320.611,-323.474 317.612,-328.169 312.851,-329.585C308.091,-331.001 303.013,-328.709 300.926,-324.203C298.839,-319.696 300.375,-314.341 304.534,-311.626" style="fill:none;stroke:black;stroke-width:0.09px;stroke-linecap:round;"/>
        </g>
        <g id="ARC---0x9F4" serif:id="ARC - 0x9F4" transform="matrix(1.1,0,0,1.1,-21,21.5)">
            <path d="M215.466,-311.626C219.171,-314.045 220.846,-318.61 219.585,-322.851C218.323,-327.092 214.425,-330 210,-330C205.575,-330 201.677,-327.092 200.415,-322.851C199.154,-318.61 200.829,-314.045 204.534,-311.626" style="fill:none;stroke:black;stroke-width:0.09px;stroke-linecap:round;"/>
        </g>
        <g id="ARC---0x9F5" serif:id="ARC - 0x9F5" transform="matrix(1.1,0,0,1.1,-21,21.5)">
            <path d="M215.466,-311.626C226.21,-297.971 242.625,-290 260,-290C277.375,-290 293.79,-297.971 304.534,-311.626" style="fill:none;stroke:black;stroke-width:0.09px;stroke-linecap:round;"/>
        </g>
        <g id="ARC---0x9F6" serif:id="ARC - 0x9F6" transform="matrix(1.1,0,0,1.1,-21,21.5)">
            <path d="M115.466,-311.626C119.625,-314.341 121.161,-319.696 119.074,-324.203C116.987,-328.709 111.909,-331.001 107.149,-329.585C102.388,-328.169 99.389,-323.474 100.104,-318.559C100.82,-313.645 105.034,-310 110,-310" style="fill:none;stroke:black;stroke-width:0.09px;stroke-linecap:round;"/>
        </g>
        <g id="ARC---0x9F7" serif:id="ARC - 0x9F7" transform="matrix(1.1,0,0,1.1,-21,21.5)">
            <path d="M115.466,-311.626C126.21,-297.971 142.625,-290 160,-290C177.375,-290 193.79,-297.971 204.534,-311.626" style="fill:none;stroke:black;stroke-width:0.09px;stroke-linecap:round;"/>
        </g>
        <g id="ARC---0x9F8" serif:id="ARC - 0x9F8" transform="matrix(1.1,0,0,1.1,-21,21.5)">
            <path d="M133.979,-296.328C141.68,-300.102 148.53,-305.407 154.113,-311.917" style="fill:none;stroke:black;stroke-width:0.09px;stroke-linecap:round;"/>
        </g>
        <g id="ARC---0x9F9" serif:id="ARC - 0x9F9" transform="matrix(1.1,0,0,1.1,-21,21.5)">
            <path d="M165.466,-311.626C169.132,-314.019 170.815,-318.517 169.621,-322.728C168.426,-326.94 164.632,-329.885 160.256,-329.997C155.88,-330.109 151.94,-327.362 150.532,-323.217C149.123,-319.073 150.574,-314.494 154.113,-311.917" style="fill:none;stroke:black;stroke-width:0.09px;stroke-linecap:round;"/>
        </g>
        <g id="ARC---0x9FB" serif:id="ARC - 0x9FB" transform="matrix(1.1,0,0,1.1,-21,21.5)">
            <path d="M165.466,-311.626C170.712,-304.959 177.387,-299.555 185,-295.813" style="fill:none;stroke:black;stroke-width:0.09px;stroke-linecap:round;"/>
        </g>
        <g id="ARC---0x9FD" serif:id="ARC - 0x9FD" transform="matrix(1.1,0,0,1.1,-21,21.5)">
            <path d="M235,-295.813C242.613,-299.555 249.288,-304.959 254.534,-311.626" style="fill:none;stroke:black;stroke-width:0.09px;stroke-linecap:round;"/>
        </g>
        <g id="ARC---0x9FE" serif:id="ARC - 0x9FE" transform="matrix(1.1,0,0,1.1,-21,21.5)">
            <path d="M265.466,-311.626C269.171,-314.045 270.846,-318.61 269.585,-322.851C268.323,-327.092 264.425,-330 260,-330C255.575,-330 251.677,-327.092 250.415,-322.851C249.154,-318.61 250.829,-314.045 254.534,-311.626" style="fill:none;stroke:black;stroke-width:0.09px;stroke-linecap:round;"/>
        </g>
        <g id="ARC---0x9FF" serif:id="ARC - 0x9FF" transform="matrix(1.1,0,0,1.1,-21,21.5)">
            <path d="M265.466,-311.626C270.712,-304.959 277.387,-299.555 285,-295.813" style="fill:none;stroke:black;stroke-width:0.09px;stroke-linecap:round;"/>
        </g>
        <g id="LINE---0xA00" serif:id="LINE - 0xA00" transform="matrix(1.1,0,0,1.1,-21,21.5)">
            <path d="M110,-260L310,-260" style="fill:none;stroke:black;stroke-width:0.09px;stroke-linecap:round;"/>
        </g>
    </g>
    <g transform="matrix(1.1,0,0,1.1,-93.5,374)">
        <g id="REF">
            <rect id="LWPOLYLINE---0xA83" serif:id="LWPOLYLINE - 0xA83" x="85" y="-340" width="250" height="250" style="fill:none;"/>
        </g>
    </g>
</svg>
