<?xml version="1.0" encoding="UTF-8" standalone="no"?>
<!DOCTYPE svg PUBLIC "-//W3C//DTD SVG 1.1//EN" "http://www.w3.org/Graphics/SVG/1.1/DTD/svg11.dtd">
<svg width="100%" height="100%" viewBox="0 0 285 285" version="1.1" xmlns="http://www.w3.org/2000/svg" xmlns:xlink="http://www.w3.org/1999/xlink" xml:space="preserve" xmlns:serif="http://www.serif.com/" style="fill-rule:evenodd;clip-rule:evenodd;stroke-linejoin:round;stroke-miterlimit:2;">
    <g transform="matrix(1,0,0,1,0.0500031,0.0119934)">
        <g transform="matrix(1,0,0,1,-228.021,-146.408)">
            <rect x="227.971" y="146.396" width="284.052" height="284.051" style="fill:none;"/>
            <g id="Layer1">
            </g>
            <g transform="matrix(1.99052,0,0,2.11558,-7.06268,132.089)">
                <g id="Layer2">
                    <ellipse cx="189.21" cy="73.791" rx="70.333" ry="66.333" style="fill:white;"/>
                </g>
            </g>
        </g>
        <g transform="matrix(1,0,0,1,-228.021,-146.408)">
            <path d="M512.023,288.422L511.825,295.917L511.232,303.392L510.245,310.824L508.867,318.195L507.102,325.482L504.955,332.666L502.432,339.727L499.54,346.645L496.287,353.401L492.681,359.975L488.734,366.35L484.456,372.508L479.859,378.431L474.955,384.104L469.76,389.51L464.286,394.634L458.549,399.462L452.565,403.981L446.351,408.177L439.925,412.04L433.303,415.558L426.506,418.722L419.55,421.522L412.457,423.952L405.245,426.004L397.935,427.673L390.547,428.953L383.102,429.842L375.62,430.336L368.122,430.435L360.63,430.138L353.164,429.446L345.745,428.362L338.393,426.887L331.13,425.026L323.975,422.784L316.948,420.168L310.069,417.185L303.357,413.843L296.83,410.151L290.508,406.12L284.407,401.761L278.545,397.086L272.938,392.108L267.601,386.841L262.549,381.3L257.798,375.5L253.358,369.457L249.244,363.189L245.467,356.712L242.036,350.044L238.962,343.205L236.254,336.213L233.918,329.089L231.961,321.85L230.389,314.519L229.207,307.115L228.416,299.658L228.021,292.171L228.021,284.673L228.416,277.185L229.207,269.729L230.389,262.324L231.961,254.993L233.918,247.755L236.254,240.63L238.962,233.638L242.036,226.799L245.467,220.132L249.244,213.655L253.358,207.386L257.798,201.343L262.549,195.543L267.601,190.002L272.938,184.735L278.545,179.757L284.407,175.082L290.508,170.723L296.83,166.692L303.357,163.001L310.069,159.658L316.948,156.675L323.975,154.059L331.13,151.817L338.393,149.957L345.745,148.482L353.164,147.397L360.63,146.705L368.122,146.408L375.62,146.507L383.102,147.001L390.547,147.89L397.935,149.171L405.245,150.839L412.457,152.891L419.55,155.321L426.506,158.121L433.303,161.285L439.925,164.803L446.351,168.666L452.565,172.863L458.549,177.381L464.286,182.209L469.76,187.333L474.955,192.739L479.859,198.412L484.456,204.335L488.734,210.493L492.681,216.868L496.287,223.443L499.54,230.198L502.432,237.116L504.955,244.177L507.102,251.361L508.867,258.648L510.245,266.019L511.232,273.452L511.825,280.926L512.023,288.422ZM373.548,181.452L373.548,196.173L373.547,196.174C383.277,196.548 392.886,198.459 402.018,201.837L402.019,201.836L407.652,188.236C401.938,183.934 400.315,176.054 403.863,169.844C407.41,163.634 415.022,161.031 421.63,163.768C428.238,166.505 431.779,173.728 429.897,180.628C428.014,187.528 421.295,191.951 414.213,190.953L408.579,204.554C417.425,208.624 425.571,214.067 432.715,220.682L443.125,210.272C439.493,204.111 441.008,196.21 446.663,191.831C452.317,187.451 460.345,187.959 465.403,193.016C470.46,198.073 470.968,206.102 466.588,211.756C462.208,217.41 454.308,218.926 448.147,215.293L437.737,225.703C444.352,232.848 449.795,240.994 453.864,249.84L453.865,249.839L467.466,244.205C466.467,237.124 470.891,230.405 477.791,228.522C484.69,226.639 491.914,230.181 494.651,236.789C497.388,243.396 494.784,251.008 488.574,254.556C482.364,258.103 474.485,256.48 470.183,250.767L470.184,250.766L456.582,256.4C459.959,265.533 461.871,275.142 462.245,284.871L476.967,284.871C478.755,277.947 485.413,273.431 492.508,274.333C499.603,275.234 504.921,281.27 504.921,288.422C504.921,295.574 499.603,301.61 492.508,302.511C485.413,303.413 478.755,298.898 476.967,291.973L476.967,291.972L462.246,291.972L462.245,291.973C461.871,301.702 459.959,311.311 456.582,320.443L470.183,326.077C474.485,320.364 482.364,318.741 488.574,322.288C494.784,325.836 497.388,333.448 494.651,340.055C491.914,346.663 484.69,350.205 477.791,348.322C470.891,346.44 466.467,339.72 467.466,332.638L453.865,327.004L453.864,327.004C449.795,335.85 444.352,343.996 437.737,351.14L448.147,361.55L448.147,361.551C454.308,357.919 462.208,359.434 466.588,365.088C470.968,370.742 470.46,378.771 465.403,383.828C460.345,388.885 452.317,389.393 446.663,385.014C441.008,380.634 439.493,372.733 443.125,366.572L443.126,366.572L432.716,356.162L432.715,356.162C425.571,362.777 417.425,368.22 408.579,372.29L414.213,385.891C421.295,384.893 428.014,389.317 429.897,396.216C431.779,403.116 428.238,410.339 421.63,413.076C415.022,415.813 407.41,413.21 403.863,407C400.315,400.79 401.938,392.911 407.652,388.609L407.652,388.608L402.019,375.007L402.018,375.007C392.886,378.385 383.277,380.296 373.548,380.671L373.548,395.392L373.547,395.392C380.472,397.18 384.987,403.839 384.086,410.934C383.185,418.029 377.149,423.347 369.997,423.347C362.845,423.347 356.808,418.029 355.907,410.934C355.006,403.839 359.521,397.18 366.446,395.392L366.446,380.671C356.716,380.296 347.107,378.385 337.975,375.007L332.342,388.608L332.341,388.609C338.055,392.911 339.678,400.79 336.13,407C332.583,413.21 324.971,415.813 318.363,413.076C311.756,410.339 308.214,403.116 310.096,396.216C311.979,389.317 318.698,384.893 325.78,385.891L325.781,385.891L331.415,372.289L331.414,372.29C322.569,368.22 314.422,362.777 307.278,356.162L296.868,366.572C300.5,372.733 298.985,380.634 293.33,385.014C287.676,389.393 279.648,388.885 274.59,383.828C269.533,378.771 269.025,370.742 273.405,365.088C277.785,359.434 285.685,357.919 291.846,361.551L302.256,351.141C295.641,343.996 290.198,335.85 286.129,327.004L272.528,332.638C273.526,339.72 269.102,346.44 262.202,348.322C255.303,350.205 248.079,346.663 245.342,340.055C242.606,333.448 245.209,325.836 251.419,322.288C257.629,318.741 265.508,320.364 269.81,326.077L283.411,320.443C280.034,311.311 278.123,301.702 277.748,291.973L277.748,291.972L263.027,291.972L263.026,291.973C261.238,298.898 254.58,303.413 247.485,302.511C240.39,301.61 235.072,295.574 235.072,288.422C235.072,281.27 240.39,275.234 247.485,274.333C254.58,273.431 261.238,277.947 263.026,284.871L277.748,284.871C278.123,275.142 280.034,265.533 283.411,256.4L283.412,256.4L269.81,250.766L269.81,250.767C265.508,256.48 257.629,258.103 251.419,254.556C245.209,251.008 242.606,243.396 245.342,236.789C248.079,230.181 255.303,226.639 262.202,228.522C269.102,230.405 273.526,237.124 272.528,244.205L286.129,249.839L286.129,249.84C290.198,240.994 295.641,232.848 302.256,225.703L302.257,225.703L291.847,215.293L291.846,215.293C285.685,218.926 277.785,217.41 273.405,211.756C269.025,206.102 269.533,198.073 274.59,193.016C279.648,187.959 287.676,187.451 293.33,191.831C298.985,196.21 300.5,204.111 296.868,210.271L307.278,220.681L307.278,220.682C314.422,214.067 322.569,208.624 331.414,204.554L331.415,204.554L325.781,190.953L325.78,190.953C318.698,191.951 311.979,187.528 310.096,180.628C308.214,173.728 311.756,166.505 318.363,163.768C324.971,161.031 332.583,163.634 336.13,169.844C339.678,176.053 338.055,183.932 332.342,188.235L337.975,201.836L337.975,201.837C347.107,198.459 356.716,196.548 366.446,196.174L366.446,181.452C359.521,179.664 355.006,173.005 355.907,165.91C356.808,158.815 362.845,153.497 369.997,153.497C377.149,153.497 383.185,158.815 384.086,165.91C384.987,173.005 380.472,179.664 373.548,181.452ZM377.098,409.144L376.907,410.781L376.343,412.331L375.437,413.708L374.238,414.84L372.81,415.664L371.23,416.137L369.584,416.233L367.96,415.947L366.446,415.293L365.124,414.309L364.064,413.046L363.324,411.572L362.944,409.968L362.944,408.319L363.324,406.715L364.064,405.241L365.124,403.978L366.446,402.994L367.96,402.341L369.584,402.054L371.23,402.15L372.81,402.623L374.238,403.447L375.437,404.579L376.343,405.957L376.907,407.506L377.098,409.144ZM330.9,399.954L330.709,401.592L330.145,403.141L329.239,404.519L328.039,405.65L326.611,406.475L325.032,406.948L323.386,407.043L321.762,406.757L320.248,406.104L318.925,405.119L317.866,403.856L317.126,402.383L316.745,400.779L316.745,399.13L317.126,397.525L317.866,396.052L318.925,394.789L320.248,393.804L321.762,393.151L323.386,392.865L325.032,392.961L326.611,393.434L328.039,394.258L329.239,395.39L330.145,396.767L330.709,398.317L330.9,399.954ZM423.297,399.954L423.105,401.592L422.541,403.141L421.635,404.519L420.436,405.65L419.008,406.475L417.428,406.948L415.782,407.043L414.159,406.757L412.645,406.104L411.322,405.119L410.262,403.856L409.522,402.383L409.142,400.779L409.142,399.13L409.522,397.525L410.262,396.052L411.322,394.789L412.645,393.804L414.159,393.151L415.782,392.865L417.428,392.961L419.008,393.434L420.436,394.258L421.635,395.39L422.541,396.767L423.105,398.317L423.297,399.954ZM462.462,373.785L462.27,375.423L461.706,376.972L460.8,378.35L459.601,379.481L458.173,380.305L456.594,380.778L454.947,380.874L453.324,380.588L451.81,379.935L450.487,378.95L449.427,377.687L448.687,376.214L448.307,374.609L448.307,372.961L448.687,371.356L449.427,369.883L450.487,368.62L451.81,367.635L453.324,366.982L454.947,366.696L456.594,366.792L458.173,367.264L459.601,368.089L460.8,369.22L461.706,370.598L462.27,372.147L462.462,373.785ZM291.735,373.785L291.544,375.423L290.98,376.972L290.074,378.35L288.874,379.481L287.446,380.305L285.867,380.778L284.221,380.874L282.597,380.588L281.083,379.935L279.76,378.95L278.701,377.687L277.961,376.214L277.58,374.609L277.58,372.961L277.961,371.356L278.701,369.883L279.76,368.62L281.083,367.635L282.597,366.982L284.221,366.696L285.867,366.792L287.446,367.264L288.874,368.089L290.074,369.22L290.98,370.598L291.544,372.147L291.735,373.785ZM350.218,345.451L350.218,345.45L346.136,355.306L346.135,355.306C352.672,357.638 359.515,358.999 366.446,359.346L366.446,348.679C360.914,348.353 355.453,347.266 350.218,345.451ZM373.548,348.679L373.548,359.346L373.547,359.346L373.548,359.346L373.548,359.346C380.478,358.999 387.321,357.638 393.858,355.306L389.776,345.45L389.775,345.451C384.541,347.266 379.08,348.353 373.548,348.679ZM400.418,352.589C406.689,349.616 412.49,345.739 417.637,341.084L417.637,341.083L410.094,333.54L410.094,333.541C405.951,337.222 401.322,340.315 396.336,342.733L396.337,342.733L400.419,352.588L400.418,352.589ZM329.899,333.541L329.9,333.54L329.899,333.541L329.899,333.541L322.356,341.084C327.503,345.739 333.304,349.616 339.575,352.589L339.575,352.588L343.657,342.733C338.671,340.315 334.042,337.222 329.899,333.541ZM373.548,348.679L373.548,348.678L373.547,348.679L373.548,348.679ZM265.566,334.62L265.374,336.258L264.81,337.807L263.904,339.185L262.705,340.317L261.277,341.141L259.698,341.613L258.052,341.71L256.428,341.423L254.914,340.77L253.591,339.785L252.531,338.522L251.791,337.049L251.411,335.444L251.411,333.795L251.791,332.191L252.531,330.718L253.591,329.455L254.914,328.47L256.428,327.817L258.052,327.531L259.698,327.626L261.277,328.099L262.705,328.924L263.904,330.055L264.81,331.433L265.374,332.982L265.566,334.62ZM488.631,334.62L488.44,336.258L487.876,337.807L486.97,339.185L485.77,340.317L484.342,341.141L482.763,341.613L481.117,341.71L479.493,341.423L477.979,340.77L476.656,339.785L475.597,338.522L474.857,337.049L474.476,335.444L474.476,333.795L474.857,332.191L475.597,330.718L476.656,329.455L477.979,328.47L479.493,327.817L481.117,327.531L482.763,327.626L484.342,328.099L485.77,328.924L486.97,330.055L487.876,331.433L488.44,332.982L488.631,334.62ZM373.548,323.751L373.548,341.563L373.547,341.563L373.548,341.563L373.548,341.563C378.147,341.256 382.686,340.353 387.052,338.877L387.053,338.876L380.236,322.42C378.054,323.077 375.814,323.523 373.548,323.751ZM359.758,322.42C361.939,323.077 364.179,323.523 366.446,323.751L366.446,341.563C361.847,341.256 357.307,340.353 352.941,338.877L352.941,338.876L359.758,322.42L359.757,322.42L359.758,322.42L359.758,322.42ZM315.686,314.761L299.262,321.564L299.262,321.565C302.602,328.693 307,335.276 312.308,341.089L324.879,328.519L324.878,328.519C321.197,324.377 318.104,319.748 315.686,314.762L315.686,314.761ZM427.685,341.088L427.685,341.089L427.686,341.089L427.685,341.088C432.993,335.276 437.391,328.693 440.731,321.565L440.732,321.564L424.308,314.761L424.307,314.762C421.889,319.748 418.796,324.377 415.115,328.519L427.685,341.088ZM350.468,326.291L346.38,336.159C342.249,334.116 338.4,331.544 334.931,328.509L342.484,320.956C344.936,323.03 347.614,324.819 350.468,326.291ZM389.526,326.29C392.38,324.819 395.058,323.03 397.509,320.956L397.51,320.956L405.063,328.509L405.062,328.509C401.593,331.544 397.746,334.115 393.614,336.159L393.614,336.159L393.613,336.159L393.614,336.159L389.526,326.29ZM350.468,326.291L350.468,326.29L350.468,326.291L350.468,326.291ZM389.526,326.29L389.525,326.291L389.526,326.29L389.526,326.29ZM373.548,323.751L373.548,323.75L373.547,323.751L373.548,323.751ZM329.41,275.453L319.542,271.366C324.065,257.985 333.719,246.948 346.38,240.685L346.38,240.684L350.468,250.553C340.424,255.733 332.85,264.69 329.41,275.453L329.411,275.453L329.41,275.454L329.41,275.453ZM403.14,217.687L403.14,217.687L403.139,217.687L403.14,217.687L389.526,250.553L389.525,250.553C392.379,252.025 395.058,253.815 397.509,255.888L417.637,235.76C419.393,237.349 421.069,239.025 422.658,240.782L402.531,260.909C404.604,263.361 406.394,266.039 407.865,268.893L407.866,268.893L440.731,255.28C432.981,238.739 419.68,225.437 403.14,217.687ZM346.135,221.538C328.397,227.866 313.898,240.982 305.83,258L315.686,262.082L315.686,262.083C322.671,247.678 335.093,236.639 350.218,231.394L350.218,231.393L346.136,221.537L346.135,221.538ZM440.731,255.28L440.731,255.28L440.732,255.279L440.731,255.28ZM265.566,242.223L265.374,243.861L264.81,245.41L263.904,246.788L262.705,247.919L261.277,248.744L259.698,249.217L258.052,249.313L256.428,249.026L254.914,248.373L253.591,247.389L252.531,246.125L251.791,244.652L251.411,243.048L251.411,241.399L251.791,239.794L252.531,238.321L253.591,237.058L254.914,236.073L256.428,235.42L258.052,235.134L259.698,235.23L261.277,235.703L262.705,236.527L263.904,237.659L264.81,239.036L265.374,240.586L265.566,242.223ZM488.631,242.223L488.44,243.861L487.876,245.41L486.97,246.788L485.77,247.919L484.342,248.744L482.763,249.217L481.117,249.313L479.493,249.026L477.979,248.373L476.656,247.389L475.597,246.125L474.857,244.652L474.476,243.048L474.476,241.399L474.857,239.794L475.597,238.321L476.656,237.058L477.979,236.073L479.493,235.42L481.117,235.134L482.763,235.23L484.342,235.703L485.77,236.527L486.97,237.659L487.876,239.036L488.44,240.586L488.631,242.223ZM291.735,203.058L291.544,204.696L290.98,206.245L290.074,207.623L288.874,208.754L287.446,209.579L285.867,210.052L284.221,210.147L282.597,209.861L281.083,209.208L279.76,208.223L278.701,206.96L277.961,205.487L277.58,203.883L277.58,202.234L277.961,200.629L278.701,199.156L279.76,197.893L281.083,196.908L282.597,196.255L284.221,195.969L285.867,196.065L287.446,196.538L288.874,197.362L290.074,198.494L290.98,199.871L291.544,201.421L291.735,203.058ZM462.462,203.058L462.27,204.696L461.706,206.245L460.8,207.623L459.601,208.754L458.173,209.579L456.594,210.052L454.947,210.147L453.324,209.861L451.81,209.208L450.487,208.223L449.427,206.96L448.687,205.487L448.307,203.883L448.307,202.234L448.687,200.629L449.427,199.156L450.487,197.893L451.81,196.908L453.324,196.255L454.947,195.969L456.594,196.065L458.173,196.538L459.601,197.362L460.8,198.494L461.706,199.871L462.27,201.421L462.462,203.058ZM330.9,176.889L330.709,178.527L330.145,180.076L329.239,181.454L328.039,182.585L326.611,183.409L325.032,183.882L323.386,183.978L321.762,183.692L320.248,183.039L318.925,182.054L317.866,180.791L317.126,179.318L316.745,177.713L316.745,176.065L317.126,174.46L317.866,172.987L318.925,171.724L320.248,170.739L321.762,170.086L323.386,169.8L325.032,169.896L326.611,170.368L328.039,171.193L329.239,172.324L330.145,173.702L330.709,175.251L330.9,176.889ZM423.297,176.889L423.105,178.527L422.541,180.076L421.635,181.454L420.436,182.585L419.008,183.409L417.428,183.882L415.782,183.978L414.159,183.692L412.645,183.039L411.322,182.054L410.262,180.791L409.522,179.318L409.142,177.713L409.142,176.065L409.522,174.46L410.262,172.987L411.322,171.724L412.645,170.739L414.159,170.086L415.782,169.8L417.428,169.896L419.008,170.368L420.436,171.193L421.635,172.324L422.541,173.702L423.105,175.251L423.297,176.889ZM377.098,167.7L376.907,169.337L376.343,170.887L375.437,172.264L374.238,173.396L372.81,174.22L371.23,174.693L369.584,174.789L367.96,174.502L366.446,173.849L365.124,172.865L364.064,171.602L363.324,170.128L362.944,168.524L362.944,166.875L363.324,165.271L364.064,163.797L365.124,162.534L366.446,161.55L367.96,160.897L369.584,160.61L371.23,160.706L372.81,161.179L374.238,162.003L375.437,163.135L376.343,164.512L376.907,166.062L377.098,167.7Z"/>
        </g>
    </g>
</svg>
